<svg xmlns="http://www.w3.org/2000/svg" viewBox="0 310.8 612 198.4" enable-background="new 0 310.8 612 198.4"><linearGradient id="a" gradientUnits="userSpaceOnUse" x1="146.77" y1="-292.841" x2="242.249" y2="-200.587" gradientTransform="matrix(1.143 0 0 1.143 0 607.707)"><stop offset=".222" stop-color="#A43D23"/><stop offset="1" stop-color="#EE6724"/></linearGradient><path fill="url(#a)" d="M183.4 310.8l107.3 107.3V367l-56.3-56.2"/><linearGradient id="b" gradientUnits="userSpaceOnUse" x1="161.074" y1="-150.892" x2="213.978" y2="-150.673" gradientTransform="matrix(1.143 0 0 1.143 0 607.707)"><stop offset=".222" stop-color="#A43D23"/><stop offset="1" stop-color="#EE6724"/></linearGradient><path fill="url(#b)" d="M183.4 474.3l78-77.8 25.5 25.5-52.5 52.3"/><linearGradient id="c" gradientUnits="userSpaceOnUse" x1="363.646" y1="-263.228" x2="339.53" y2="-197.07" gradientTransform="matrix(1.143 0 0 1.143 0 607.707)"><stop offset=".222" stop-color="#A43D23"/><stop offset="1" stop-color="#EE6724"/></linearGradient><path fill="url(#c)" d="M415.2 318.8l18.3 28.1-38.4 43.2H353z"/><path fill="#F26522" d="M433.5 310.8v36.1H311v-36z"/><linearGradient id="d" gradientUnits="userSpaceOnUse" x1="297.862" y1="-112.884" x2="305.901" y2="-160.41" gradientTransform="matrix(1.143 0 0 1.143 0 607.707)"><stop offset=".222" stop-color="#A43D23"/><stop offset="1" stop-color="#EE6724"/></linearGradient><path fill="url(#d)" d="M329.3 466l-18.4-28 37.7-43.5h42.7z"/><path fill="#F26522" d="M310.9 474v-36l122.7-.1V474z"/><linearGradient id="e" gradientUnits="userSpaceOnUse" x1="441.895" y1="-338.514" x2="487.411" y2="-206.981" gradientTransform="matrix(1.143 0 0 1.143 0 607.707)"><stop offset=".222" stop-color="#A43D23"/><stop offset="1" stop-color="#EE6724"/></linearGradient><path fill="url(#e)" d="M556 318.8l-18.2 51.1 36.9 104.4H612z"/><path fill="#F26522" d="M516.9 310.8h36.2l-60.7 163.5h-38.6z"/><linearGradient id="f" gradientUnits="userSpaceOnUse" x1="19.246" y1="-210.743" x2="83.997" y2="-116.85" gradientTransform="matrix(1.143 0 0 1.143 0 607.707)"><stop offset=".222" stop-color="#A43D23"/><stop offset="1" stop-color="#EE6724"/></linearGradient><path fill="url(#f)" d="M38.1 420.5l40 54.3h39.3L38.1 365.4"/><path fill="#F06623" d="M38.1 365.4l40-54.3h39.3L38.1 420.5"/><path fill="#EE6724" d="M0 311.2h32.1v163.6H0z"/><path fill="#F06623" d="M183.3 310.8l-51.9 51.8 25.5 25.5 77.5-77.3M183.4 474.3L127.9 418l-.5-50.9 107 107.2"/><g enable-background="new"><path d="M9.3 494.6l-.9 1.2c-.7-.6-1.4-.9-2.4-.9-1.8 0-3 1.4-3 4.4 0 2.9 1.2 4.2 3 4.2.9 0 1.6-.3 2.4-.9l.8 1.2c-.8.8-1.9 1.2-3.2 1.2-2.9 0-4.8-2.1-4.8-5.7 0-3.5 1.8-5.9 4.8-5.9 1.3.1 2.3.4 3.3 1.2zM17.8 493.6l-.3 1.7c-.3-.1-.6-.1-1-.1-1.4 0-2.2 1-2.7 3.1v6.5H12v-11h1.5l.2 2.3c.6-1.7 1.6-2.6 3-2.6.4 0 .8 0 1.1.1zM28.1 499.8H21c.2 2.7 1.4 3.7 3.1 3.7 1.1 0 1.9-.3 2.9-1l.8 1c-1.1.9-2.3 1.4-3.8 1.4-3 0-4.8-2.2-4.8-5.7s1.7-5.9 4.5-5.9c3 0 4.5 2.1 4.5 5.4-.1.5-.1.9-.1 1.1zm-1.7-1.4c0-2.2-.9-3.5-2.7-3.5-1.5 0-2.6 1.1-2.7 3.7h5.4v-.2zM38.7 502.2c0 1 .3 1.3.9 1.6l-.4 1.2c-1.1-.1-1.8-.6-2.1-1.7-.8 1.2-2 1.7-3.3 1.7-2.2 0-3.5-1.4-3.5-3.3 0-2.4 1.8-3.6 4.8-3.6h1.8v-.9c0-1.6-.8-2.3-2.4-2.3-.8 0-1.8.2-3 .6l-.4-1.3c1.3-.5 2.5-.8 3.7-.8 2.6 0 3.8 1.3 3.8 3.6v5.2zm-1.8-.3v-2.6h-1.6c-2.1 0-3.1.8-3.1 2.4 0 1.3.7 2.1 2 2.1 1.2-.1 2.1-.8 2.7-1.9zM48.2 504.3c-.7.5-1.5.7-2.4.7-1.8 0-2.9-1.1-2.9-3.1v-6.8H41v-1.4h1.9v-2.5l1.8-.2v2.7h2.7l-.2 1.4h-2.5v6.8c0 1.2.4 1.7 1.4 1.7.5 0 1-.1 1.5-.5l.6 1.2zM52.4 489.7c0 .7-.5 1.2-1.3 1.2-.7 0-1.2-.5-1.2-1.2s.5-1.2 1.2-1.2 1.3.5 1.3 1.2zm-2.2 15.1v-11H52v11h-1.8zM58.1 504.8l-3.8-11h1.9l3 9.5 3-9.5H64l-3.8 11h-2.1zM74.3 499.8h-7.1c.2 2.7 1.4 3.7 3.1 3.7 1.1 0 1.9-.3 2.9-1l.8 1c-1.1.9-2.3 1.4-3.8 1.4-3 0-4.8-2.2-4.8-5.7s1.7-5.9 4.5-5.9c3 0 4.5 2.1 4.5 5.4-.1.5-.1.9-.1 1.1zm-1.7-1.4c0-2.2-.9-3.5-2.7-3.5-1.5 0-2.6 1.1-2.7 3.7h5.4v-.2zM92 494.1c-.9.3-1.9.3-3.2.3 1.3.6 1.9 1.5 1.9 2.8 0 2.2-1.6 3.7-4.2 3.7-.5 0-1-.1-1.4-.2-.4.3-.6.7-.6 1.1 0 .5.3.9 1.5.9h1.8c2.2 0 3.7 1.3 3.7 3 0 2.1-1.7 3.3-5.1 3.3-3.5 0-4.7-1.1-4.7-3.3h1.6c0 1.3.6 1.9 3.1 1.9 2.4 0 3.3-.7 3.3-1.8s-.9-1.6-2.3-1.6h-1.7c-1.9 0-2.8-1-2.8-2.1 0-.7.4-1.4 1.2-1.9-1.3-.7-1.8-1.6-1.8-3.1 0-2.2 1.8-3.8 4.2-3.8 2.8.1 3.8-.4 5-.9l.5 1.7zm-8 3.2c0 1.6.9 2.6 2.4 2.6 1.6 0 2.4-.9 2.4-2.6s-.8-2.5-2.5-2.5c-1.4-.1-2.3 1-2.3 2.5zM99.8 493.6l-.3 1.7c-.3-.1-.6-.1-1-.1-1.4 0-2.2 1-2.7 3.1v6.5H94v-11h1.5l.2 2.3c.6-1.7 1.6-2.6 3-2.6.4 0 .8 0 1.1.1zM110.8 499.2c0 3.5-1.8 5.8-4.9 5.8s-4.9-2.2-4.9-5.8c0-3.5 1.8-5.8 4.9-5.8 3.2.1 4.9 2.3 4.9 5.8zm-7.8 0c0 2.9 1 4.3 3 4.3s3-1.4 3-4.4c0-2.9-1-4.3-3-4.3-1.9.1-3 1.5-3 4.4zM120.7 504.8l-.1-1.8c-.8 1.3-1.9 2-3.5 2-2 0-3.1-1.2-3.1-3.4v-7.9h1.8v7.7c0 1.6.5 2.2 1.8 2.2s2.2-.8 2.9-2v-7.9h1.8v11h-1.6zM135.3 499.2c0 3.4-1.5 5.8-4.3 5.8-1.2 0-2.2-.4-2.9-1.3v5.3l-1.8.2v-15.5h1.5l.1 1.5c.8-1.1 2-1.8 3.3-1.8 2.9.1 4.1 2.3 4.1 5.8zm-1.9 0c0-2.9-.9-4.3-2.6-4.3-1.2 0-2.1.8-2.8 1.8v5.5c.6.9 1.5 1.4 2.5 1.4 1.9 0 2.9-1.4 2.9-4.4z"/></g></svg>