<svg xmlns="http://www.w3.org/2000/svg" viewBox="0 0 612 792" enable-background="new 0 0 612 792"><linearGradient id="a" gradientUnits="userSpaceOnUse" x1="191.857" y1="336.975" x2="287.266" y2="429.162"><stop offset=".222" stop-color="#A43D23"/><stop offset="1" stop-color="#EE6724"/></linearGradient><path fill="url(#a)" d="M205.4 370.1l94 93.9-.1-44.7-49.2-49.2"/><linearGradient id="b" gradientUnits="userSpaceOnUse" x1="206.145" y1="478.913" x2="259.049" y2="479.132"><stop offset=".222" stop-color="#A43D23"/><stop offset="1" stop-color="#EE6724"/></linearGradient><path fill="url(#b)" d="M205.4 513l68.3-67.9 22.3 22.3-45.9 45.6"/><linearGradient id="c" gradientUnits="userSpaceOnUse" x1="408.777" y1="366.626" x2="384.661" y2="432.784"><stop offset=".222" stop-color="#A43D23"/><stop offset="1" stop-color="#EE6724"/></linearGradient><path fill="url(#c)" d="M408.2 377l16.1 24.6-33.6 37.9h-36.8z"/><path fill="#F26522" d="M424.3 370.1v31.5l-107.2.1v-31.6z"/><linearGradient id="d" gradientUnits="userSpaceOnUse" x1="342.932" y1="516.948" x2="350.97" y2="469.422"><stop offset=".222" stop-color="#A43D23"/><stop offset="1" stop-color="#EE6724"/></linearGradient><path fill="url(#d)" d="M333.1 505.9L317 481.3l33-37.9h37.3z"/><path fill="#F26522" d="M317 512.9v-31.6h107.4v31.5z"/><linearGradient id="e" gradientUnits="userSpaceOnUse" x1="486.997" y1="291.308" x2="532.513" y2="422.841"><stop offset=".222" stop-color="#A43D23"/><stop offset="1" stop-color="#EE6724"/></linearGradient><path fill="url(#e)" d="M531.4 377l-15.9 44.8 32.3 91.3h32.6z"/><path fill="#F26522" d="M497.2 370.1h31.7L475.8 513l-33.8.1z"/><linearGradient id="f" gradientUnits="userSpaceOnUse" x1="64.299" y1="419.102" x2="129.051" y2="512.995"><stop offset=".222" stop-color="#A43D23"/><stop offset="1" stop-color="#EE6724"/></linearGradient><path fill="url(#f)" d="M78.3 466.1l35 47.4h34.5l-69.5-95.6"/><path fill="#F06623" d="M78.3 417.9l35-47.4h34.5l-69.5 95.6"/><path fill="#EE6724" d="M45.1 370.5h28.1v143.1H45.1z"/><path fill="#F06623" d="M205.4 370.1L160 415.4l22.3 22.3 67.8-67.6M205.4 513L157 463.9l-.5-44.4 93.6 93.5"/></svg>