<svg xmlns="http://www.w3.org/2000/svg" viewBox="0 607.6 612 198.3" enable-background="new 0 607.6 612 198.3"><linearGradient id="a" gradientUnits="userSpaceOnUse" x1="146.77" y1="1084.841" x2="242.205" y2="992.629" gradientTransform="matrix(1.143 0 0 -1.143 0 1810)"><stop offset=".222" stop-color="#A43D23"/><stop offset="1" stop-color="#EE6724"/></linearGradient><path fill="url(#a)" d="M183.4 607.6l107.3 107.3v-51.1l-56.3-56.2"/><linearGradient id="b" gradientUnits="userSpaceOnUse" x1="161.073" y1="942.849" x2="213.978" y2="942.63" gradientTransform="matrix(1.143 0 0 -1.143 0 1810)"><stop offset=".222" stop-color="#A43D23"/><stop offset="1" stop-color="#EE6724"/></linearGradient><path fill="url(#b)" d="M183.4 771.1l78-77.8 25.5 25.5-52.5 52.3"/><linearGradient id="c" gradientUnits="userSpaceOnUse" x1="363.646" y1="1055.228" x2="339.53" y2="989.07" gradientTransform="matrix(1.143 0 0 -1.143 0 1810)"><stop offset=".222" stop-color="#A43D23"/><stop offset="1" stop-color="#EE6724"/></linearGradient><path fill="url(#c)" d="M415.2 615.6l18.3 28.1-38.4 43.2H353z"/><path fill="#F26522" d="M433.5 607.6v36.1H311v-36z"/><linearGradient id="d" gradientUnits="userSpaceOnUse" x1="297.862" y1="904.884" x2="305.901" y2="952.41" gradientTransform="matrix(1.143 0 0 -1.143 0 1810)"><stop offset=".222" stop-color="#A43D23"/><stop offset="1" stop-color="#EE6724"/></linearGradient><path fill="url(#d)" d="M329.3 762.8l-18.4-28 37.7-43.5h42.7z"/><path fill="#F26522" d="M310.9 770.8v-36l122.7-.1v36.1z"/><linearGradient id="e" gradientUnits="userSpaceOnUse" x1="441.881" y1="1130.509" x2="487.398" y2="998.976" gradientTransform="matrix(1.143 0 0 -1.143 0 1810)"><stop offset=".222" stop-color="#A43D23"/><stop offset="1" stop-color="#EE6724"/></linearGradient><path fill="url(#e)" d="M556 615.6l-18.2 51.1 36.9 104.4H612z"/><path fill="#F26522" d="M516.9 607.6h36.2l-60.7 163.5h-38.6z"/><linearGradient id="f" gradientUnits="userSpaceOnUse" x1="19.225" y1="1002.729" x2="83.977" y2="908.836" gradientTransform="matrix(1.143 0 0 -1.143 0 1810)"><stop offset=".222" stop-color="#A43D23"/><stop offset="1" stop-color="#EE6724"/></linearGradient><path fill="url(#f)" d="M38.1 717.3l40 54.3h39.3L38.1 662.2"/><path fill="#F06623" d="M38.1 662.2l40-54.3h39.3L38.1 717.3"/><path fill="#EE6724" d="M0 608h32.1v163.6H0z"/><path fill="#F06623" d="M183.3 607.6l-51.9 51.8 25.5 25.5 77.5-77.3M183.4 771.1l-55.5-56.3-.5-50.9 107 107.2"/><path d="M9 791.6l-.5.7c-.7-.6-1.4-.9-2.5-.9-2.1 0-3.6 1.6-3.6 4.9 0 3.2 1.5 4.8 3.6 4.8 1 0 1.8-.4 2.6-1l.5.7c-.8.7-1.8 1.2-3.1 1.2-2.8 0-4.6-2.1-4.6-5.6 0-3.5 1.8-5.7 4.6-5.7 1.2-.2 2.1.1 3 .9zM17.2 790.6l-.2.9c-.3-.1-.6-.1-1-.1-1.6 0-2.4 1.1-3 3.4v6.8h-1v-10.9h.8l.1 2.5c.6-1.8 1.6-2.7 3.1-2.7.6 0 1 .1 1.2.1zM27.1 796.6h-7.4c.1 3.1 1.6 4.4 3.6 4.4 1.2 0 2-.4 3-1.1l.5.6c-1 .8-2.1 1.3-3.5 1.3-2.8 0-4.5-2.1-4.5-5.6 0-3.5 1.7-5.8 4.3-5.8 2.8 0 4.2 2.1 4.2 5.2-.1.5-.1.8-.2 1zm-.9-1.2c0-2.5-1-4.1-3.2-4.1-1.8 0-3.2 1.3-3.3 4.5h6.5v-.4zM37.4 799.3c0 1.3.3 1.7.9 1.9l-.2.7c-.9-.2-1.4-.7-1.5-1.9-.8 1.3-1.9 1.9-3.5 1.9-2.1 0-3.4-1.3-3.4-3.3 0-2.3 1.7-3.5 4.4-3.5h2.2V794c0-1.8-.7-2.6-2.6-2.6-.9 0-1.9.2-3 .7l-.3-.8c1.2-.5 2.2-.7 3.3-.7 2.4 0 3.5 1.2 3.5 3.4v5.3zm-1-.3v-3.1h-2.1c-2.2 0-3.6.9-3.6 2.7 0 1.6.9 2.5 2.5 2.5 1.5 0 2.5-.8 3.2-2.1zM46.8 801.2c-.6.4-1.4.7-2.3.7-1.6 0-2.6-.9-2.6-2.8v-7.5h-1.8v-.8H42v-2.7l1-.1v2.8h2.9l-.1.8H43v7.5c0 1.3.5 2 1.7 2 .6 0 1.2-.2 1.8-.5l.3.6zM50.2 786.8c0 .4-.3.7-.8.7s-.8-.3-.8-.7.3-.7.8-.7.8.3.8.7zM49 801.7v-10.9h1v10.9h-1zM56.6 801.7l-4-10.9h1.1l3.5 10.1 3.4-10.1h1l-3.8 10.9h-1.2zM71.6 796.6h-7.4c.1 3.1 1.6 4.4 3.6 4.4 1.2 0 2-.4 3-1.1l.5.6c-1 .8-2.1 1.3-3.5 1.3-2.8 0-4.5-2.1-4.5-5.6 0-3.5 1.7-5.8 4.3-5.8 2.8 0 4.2 2.1 4.2 5.2-.2.5-.2.8-.2 1zm-.9-1.2c0-2.5-1-4.1-3.2-4.1-1.8 0-3.2 1.3-3.3 4.5h6.5v-.4zM89.1 790.8c-.7.2-1.6.3-3 .3 1.1.5 1.8 1.5 1.8 3.1 0 2.1-1.5 3.6-3.9 3.6-.5 0-1-.1-1.4-.2-.6.3-.9.8-.9 1.3 0 .7.5 1.2 1.8 1.2h1.8c2.1 0 3.4 1.1 3.4 2.7 0 1.9-1.5 3.1-4.6 3.1-3.2 0-4.5-.9-4.5-3.1h.9c0 1.6.9 2.2 3.6 2.2 2.6 0 3.6-.8 3.6-2.2 0-1.2-1-1.9-2.6-1.9h-1.8c-1.8 0-2.7-.8-2.7-1.9 0-.7.5-1.4 1.2-1.8-1.2-.7-1.8-1.6-1.8-3.1 0-2.2 1.5-3.6 3.9-3.6 3 0 3.7-.2 4.7-.6l.5.9zm-8 3.4c0 1.9 1.2 2.9 2.9 2.9 1.9 0 2.9-1 2.9-2.8 0-1.8-.9-2.9-2.9-2.9-1.9-.1-2.9 1.1-2.9 2.8zM96.8 790.6l-.2.9c-.3-.1-.6-.1-1-.1-1.6 0-2.4 1.1-3 3.4v6.8h-1v-10.9h.8l.1 2.5c.6-1.8 1.6-2.7 3.1-2.7.5 0 .9.1 1.2.1zM107.3 796.2c0 3.6-1.7 5.7-4.5 5.7s-4.5-2.2-4.5-5.7c0-3.6 1.8-5.7 4.5-5.7 2.8 0 4.5 2 4.5 5.7zm-8 0c0 3.1 1.3 4.8 3.5 4.8s3.5-1.7 3.5-4.9-1.3-4.8-3.5-4.8c-2.2.1-3.5 1.7-3.5 4.9zM117.7 801.7l-.1-2c-.7 1.3-1.9 2.3-3.6 2.3-2 0-3.1-1.2-3.1-3.4v-7.8h1v7.7c0 1.8.8 2.6 2.3 2.6 1.5 0 2.6-1 3.4-2.3v-8h1v10.9h-.9zM131.4 796.1c0 3.5-1.4 5.8-4.1 5.8-1.4 0-2.5-.7-3.2-1.6v5.5l-1 .2v-15.2h.8l.1 1.7c.8-1.1 2-1.9 3.4-1.9 2.7-.1 4 2 4 5.5zm-1 0c0-3.2-1-4.8-3.1-4.8-1.5 0-2.4.8-3.2 1.9v6c.7 1.1 1.7 1.8 3.1 1.8 2.1 0 3.2-1.6 3.2-4.9z"/></svg>