<?xml version="1.0" encoding="utf-8"?>
<!-- Generator: Adobe Illustrator 17.1.0, SVG Export Plug-In . SVG Version: 6.00 Build 0)  -->
<!DOCTYPE svg PUBLIC "-//W3C//DTD SVG 1.1//EN" "http://www.w3.org/Graphics/SVG/1.1/DTD/svg11.dtd">
<svg version="1.1" id="Layer_1" xmlns="http://www.w3.org/2000/svg" xmlns:xlink="http://www.w3.org/1999/xlink" x="0px" y="0px"
	 viewBox="0 310.8 612 198.4" enable-background="new 0 310.8 612 198.4" xml:space="preserve">
<linearGradient id="SVGID_1_" gradientUnits="userSpaceOnUse" x1="146.7702" y1="-292.8412" x2="242.2485" y2="-200.5866" gradientTransform="matrix(1.1433 0 0 1.1433 0 607.7068)">
	<stop  offset="0.2217" style="stop-color:#A43D23"/>
	<stop  offset="1" style="stop-color:#EE6724"/>
</linearGradient>
<polyline fill="url(#SVGID_1_)" points="183.4,310.8 290.7,418.1 290.7,367 234.4,310.8 "/>
<linearGradient id="SVGID_2_" gradientUnits="userSpaceOnUse" x1="161.0737" y1="-150.8923" x2="213.9778" y2="-150.6732" gradientTransform="matrix(1.1433 0 0 1.1433 0 607.7068)">
	<stop  offset="0.2217" style="stop-color:#A43D23"/>
	<stop  offset="1" style="stop-color:#EE6724"/>
</linearGradient>
<polyline fill="url(#SVGID_2_)" points="183.4,474.3 261.4,396.5 286.9,422 234.4,474.3 "/>
<linearGradient id="SVGID_3_" gradientUnits="userSpaceOnUse" x1="363.6463" y1="-263.2281" x2="339.5296" y2="-197.07" gradientTransform="matrix(1.1433 0 0 1.1433 0 607.7068)">
	<stop  offset="0.2217" style="stop-color:#A43D23"/>
	<stop  offset="1" style="stop-color:#EE6724"/>
</linearGradient>
<polygon fill="url(#SVGID_3_)" points="415.2,318.8 433.5,346.9 395.1,390.1 353,390.1 "/>
<polygon fill="#F26522" points="433.5,310.8 433.5,346.9 311,346.9 311,310.9 "/>
<linearGradient id="SVGID_4_" gradientUnits="userSpaceOnUse" x1="297.8624" y1="-112.8836" x2="305.9011" y2="-160.4104" gradientTransform="matrix(1.1433 0 0 1.1433 0 607.7068)">
	<stop  offset="0.2217" style="stop-color:#A43D23"/>
	<stop  offset="1" style="stop-color:#EE6724"/>
</linearGradient>
<polygon fill="url(#SVGID_4_)" points="329.3,466 310.9,438 348.6,394.5 391.3,394.5 "/>
<polygon fill="#F26522" points="310.9,474 310.9,438 433.6,437.9 433.6,474 "/>
<linearGradient id="SVGID_5_" gradientUnits="userSpaceOnUse" x1="441.895" y1="-338.5135" x2="487.4111" y2="-206.9809" gradientTransform="matrix(1.1433 0 0 1.1433 0 607.7068)">
	<stop  offset="0.2217" style="stop-color:#A43D23"/>
	<stop  offset="1" style="stop-color:#EE6724"/>
</linearGradient>
<polygon fill="url(#SVGID_5_)" points="556,318.8 537.8,369.9 574.7,474.3 612,474.3 "/>
<polygon fill="#F26522" points="516.9,310.8 553.1,310.8 492.4,474.3 453.8,474.3 "/>
<linearGradient id="SVGID_6_" gradientUnits="userSpaceOnUse" x1="19.2459" y1="-210.7426" x2="83.9971" y2="-116.8496" gradientTransform="matrix(1.1433 0 0 1.1433 0 607.7068)">
	<stop  offset="0.2217" style="stop-color:#A43D23"/>
	<stop  offset="1" style="stop-color:#EE6724"/>
</linearGradient>
<polyline fill="url(#SVGID_6_)" points="38.1,420.5 78.1,474.8 117.4,474.8 38.1,365.4 "/>
<polyline fill="#F06623" points="38.1,365.4 78.1,311.1 117.4,311.1 38.1,420.5 "/>
<rect y="311.2" fill="#EE6724" width="32.1" height="163.6"/>
<polyline fill="#F06623" points="183.3,310.8 131.4,362.6 156.9,388.1 234.4,310.8 "/>
<polyline fill="#F06623" points="183.4,474.3 127.9,418 127.4,367.1 234.4,474.3 "/>
<g enable-background="new    ">
	<path d="M9.3,494.6l-0.9,1.2c-0.7-0.6-1.4-0.9-2.4-0.9c-1.8,0-3,1.4-3,4.4c0,2.9,1.2,4.2,3,4.2c0.9,0,1.6-0.3,2.4-0.9l0.8,1.2
		C8.4,504.6,7.3,505,6,505c-2.9,0-4.8-2.1-4.8-5.7c0-3.5,1.8-5.9,4.8-5.9C7.3,493.5,8.3,493.8,9.3,494.6z"/>
	<path d="M17.8,493.6l-0.3,1.7c-0.3-0.1-0.6-0.1-1-0.1c-1.4,0-2.2,1-2.7,3.1v6.5h-1.8v-11h1.5l0.2,2.3c0.6-1.7,1.6-2.6,3-2.6
		C17.1,493.5,17.5,493.5,17.8,493.6z"/>
	<path d="M28.1,499.8h-7.1c0.2,2.7,1.4,3.7,3.1,3.7c1.1,0,1.9-0.3,2.9-1l0.8,1c-1.1,0.9-2.3,1.4-3.8,1.4c-3,0-4.8-2.2-4.8-5.7
		c0-3.5,1.7-5.9,4.5-5.9c3,0,4.5,2.1,4.5,5.4C28.1,499.2,28.1,499.6,28.1,499.8z M26.4,498.4c0-2.2-0.9-3.5-2.7-3.5
		c-1.5,0-2.6,1.1-2.7,3.7h5.4V498.4z"/>
	<path d="M38.7,502.2c0,1,0.3,1.3,0.9,1.6l-0.4,1.2c-1.1-0.1-1.8-0.6-2.1-1.7c-0.8,1.2-2,1.7-3.3,1.7c-2.2,0-3.5-1.4-3.5-3.3
		c0-2.4,1.8-3.6,4.8-3.6h1.8v-0.9c0-1.6-0.8-2.3-2.4-2.3c-0.8,0-1.8,0.2-3,0.6l-0.4-1.3c1.3-0.5,2.5-0.8,3.7-0.8
		c2.6,0,3.8,1.3,3.8,3.6V502.2z M36.9,501.9v-2.6h-1.6c-2.1,0-3.1,0.8-3.1,2.4c0,1.3,0.7,2.1,2,2.1C35.4,503.7,36.3,503,36.9,501.9z
		"/>
	<path d="M48.2,504.3c-0.7,0.5-1.5,0.7-2.4,0.7c-1.8,0-2.9-1.1-2.9-3.1v-6.8h-1.9v-1.4h1.9v-2.5l1.8-0.2v2.7h2.7l-0.2,1.4h-2.5v6.8
		c0,1.2,0.4,1.7,1.4,1.7c0.5,0,1-0.1,1.5-0.5L48.2,504.3z"/>
	<path d="M52.4,489.7c0,0.7-0.5,1.2-1.3,1.2c-0.7,0-1.2-0.5-1.2-1.2s0.5-1.2,1.2-1.2C51.8,488.5,52.4,489,52.4,489.7z M50.2,504.8
		v-11H52v11H50.2z"/>
	<path d="M58.1,504.8l-3.8-11h1.9l3,9.5l3-9.5H64l-3.8,11H58.1z"/>
	<path d="M74.3,499.8h-7.1c0.2,2.7,1.4,3.7,3.1,3.7c1.1,0,1.9-0.3,2.9-1l0.8,1c-1.1,0.9-2.3,1.4-3.8,1.4c-3,0-4.8-2.2-4.8-5.7
		c0-3.5,1.7-5.9,4.5-5.9c3,0,4.5,2.1,4.5,5.4C74.3,499.2,74.3,499.6,74.3,499.8z M72.6,498.4c0-2.2-0.9-3.5-2.7-3.5
		c-1.5,0-2.6,1.1-2.7,3.7h5.4V498.4z"/>
	<path d="M92,494.1c-0.9,0.3-1.9,0.3-3.2,0.3c1.3,0.6,1.9,1.5,1.9,2.8c0,2.2-1.6,3.7-4.2,3.7c-0.5,0-1-0.1-1.4-0.2
		c-0.4,0.3-0.6,0.7-0.6,1.1c0,0.5,0.3,0.9,1.5,0.9h1.8c2.2,0,3.7,1.3,3.7,3c0,2.1-1.7,3.3-5.1,3.3c-3.5,0-4.7-1.1-4.7-3.3h1.6
		c0,1.3,0.6,1.9,3.1,1.9c2.4,0,3.3-0.7,3.3-1.8c0-1.1-0.9-1.6-2.3-1.6h-1.7c-1.9,0-2.8-1-2.8-2.1c0-0.7,0.4-1.4,1.2-1.9
		c-1.3-0.7-1.8-1.6-1.8-3.1c0-2.2,1.8-3.8,4.2-3.8c2.8,0.1,3.8-0.4,5-0.9L92,494.1z M84,497.3c0,1.6,0.9,2.6,2.4,2.6
		c1.6,0,2.4-0.9,2.4-2.6s-0.8-2.5-2.5-2.5C84.9,494.7,84,495.8,84,497.3z"/>
	<path d="M99.8,493.6l-0.3,1.7c-0.3-0.1-0.6-0.1-1-0.1c-1.4,0-2.2,1-2.7,3.1v6.5h-1.8v-11h1.5l0.2,2.3c0.6-1.7,1.6-2.6,3-2.6
		C99.1,493.5,99.5,493.5,99.8,493.6z"/>
	<path d="M110.8,499.2c0,3.5-1.8,5.8-4.9,5.8s-4.9-2.2-4.9-5.8c0-3.5,1.8-5.8,4.9-5.8C109.1,493.5,110.8,495.7,110.8,499.2z
		 M103,499.2c0,2.9,1,4.3,3,4.3s3-1.4,3-4.4c0-2.9-1-4.3-3-4.3C104.1,494.9,103,496.3,103,499.2z"/>
	<path d="M120.7,504.8l-0.1-1.8c-0.8,1.3-1.9,2-3.5,2c-2,0-3.1-1.2-3.1-3.4v-7.9h1.8v7.7c0,1.6,0.5,2.2,1.8,2.2s2.2-0.8,2.9-2v-7.9
		h1.8v11H120.7z"/>
	<path d="M135.3,499.2c0,3.4-1.5,5.8-4.3,5.8c-1.2,0-2.2-0.4-2.9-1.3v5.3l-1.8,0.2v-15.5h1.5l0.1,1.5c0.8-1.1,2-1.8,3.3-1.8
		C134.1,493.5,135.3,495.7,135.3,499.2z M133.4,499.2c0-2.9-0.9-4.3-2.6-4.3c-1.2,0-2.1,0.8-2.8,1.8v5.5c0.6,0.9,1.5,1.4,2.5,1.4
		C132.4,503.6,133.4,502.2,133.4,499.2z"/>
</g>
</svg>
