<?xml version="1.0" encoding="utf-8"?>
<!-- Generator: Adobe Illustrator 17.1.0, SVG Export Plug-In . SVG Version: 6.00 Build 0)  -->
<!DOCTYPE svg PUBLIC "-//W3C//DTD SVG 1.1//EN" "http://www.w3.org/Graphics/SVG/1.1/DTD/svg11.dtd">
<svg version="1.1" id="Layer_1" xmlns="http://www.w3.org/2000/svg" xmlns:xlink="http://www.w3.org/1999/xlink" x="0px" y="0px"
	 viewBox="0 607.6 612 198.3" enable-background="new 0 607.6 612 198.3" xml:space="preserve">
<linearGradient id="SVGID_1_" gradientUnits="userSpaceOnUse" x1="146.7702" y1="1084.8412" x2="242.2048" y2="992.6288" gradientTransform="matrix(1.1433 0 0 -1.1433 0 1810.0004)">
	<stop  offset="0.2217" style="stop-color:#A43D23"/>
	<stop  offset="1" style="stop-color:#EE6724"/>
</linearGradient>
<polyline fill="url(#SVGID_1_)" points="183.4,607.6 290.7,714.9 290.7,663.8 234.4,607.6 "/>
<linearGradient id="SVGID_2_" gradientUnits="userSpaceOnUse" x1="161.0735" y1="942.8486" x2="213.9776" y2="942.6295" gradientTransform="matrix(1.1433 0 0 -1.1433 0 1810.0004)">
	<stop  offset="0.2217" style="stop-color:#A43D23"/>
	<stop  offset="1" style="stop-color:#EE6724"/>
</linearGradient>
<polyline fill="url(#SVGID_2_)" points="183.4,771.1 261.4,693.3 286.9,718.8 234.4,771.1 "/>
<linearGradient id="SVGID_3_" gradientUnits="userSpaceOnUse" x1="363.6463" y1="1055.228" x2="339.5296" y2="989.07" gradientTransform="matrix(1.1433 0 0 -1.1433 0 1810.0004)">
	<stop  offset="0.2217" style="stop-color:#A43D23"/>
	<stop  offset="1" style="stop-color:#EE6724"/>
</linearGradient>
<polygon fill="url(#SVGID_3_)" points="415.2,615.6 433.5,643.7 395.1,686.9 353,686.9 "/>
<polygon fill="#F26522" points="433.5,607.6 433.5,643.7 311,643.7 311,607.7 "/>
<linearGradient id="SVGID_4_" gradientUnits="userSpaceOnUse" x1="297.8624" y1="904.8836" x2="305.9012" y2="952.4104" gradientTransform="matrix(1.1433 0 0 -1.1433 0 1810.0004)">
	<stop  offset="0.2217" style="stop-color:#A43D23"/>
	<stop  offset="1" style="stop-color:#EE6724"/>
</linearGradient>
<polygon fill="url(#SVGID_4_)" points="329.3,762.8 310.9,734.8 348.6,691.3 391.3,691.3 "/>
<polygon fill="#F26522" points="310.9,770.8 310.9,734.8 433.6,734.7 433.6,770.8 "/>
<linearGradient id="SVGID_5_" gradientUnits="userSpaceOnUse" x1="441.8814" y1="1130.5088" x2="487.3976" y2="998.9762" gradientTransform="matrix(1.1433 0 0 -1.1433 0 1810.0004)">
	<stop  offset="0.2217" style="stop-color:#A43D23"/>
	<stop  offset="1" style="stop-color:#EE6724"/>
</linearGradient>
<polygon fill="url(#SVGID_5_)" points="556,615.6 537.8,666.7 574.7,771.1 612,771.1 "/>
<polygon fill="#F26522" points="516.9,607.6 553.1,607.6 492.4,771.1 453.8,771.1 "/>
<linearGradient id="SVGID_6_" gradientUnits="userSpaceOnUse" x1="19.2254" y1="1002.7285" x2="83.9766" y2="908.8355" gradientTransform="matrix(1.1433 0 0 -1.1433 0 1810.0004)">
	<stop  offset="0.2217" style="stop-color:#A43D23"/>
	<stop  offset="1" style="stop-color:#EE6724"/>
</linearGradient>
<polyline fill="url(#SVGID_6_)" points="38.1,717.3 78.1,771.6 117.4,771.6 38.1,662.2 "/>
<polyline fill="#F06623" points="38.1,662.2 78.1,607.9 117.4,607.9 38.1,717.3 "/>
<rect y="608" fill="#EE6724" width="32.1" height="163.6"/>
<polyline fill="#F06623" points="183.3,607.6 131.4,659.4 156.9,684.9 234.4,607.6 "/>
<polyline fill="#F06623" points="183.4,771.1 127.9,714.8 127.4,663.9 234.4,771.1 "/>
<g>
	<path d="M9,791.6l-0.5,0.7c-0.7-0.6-1.4-0.9-2.5-0.9c-2.1,0-3.6,1.6-3.6,4.9c0,3.2,1.5,4.8,3.6,4.8c1,0,1.8-0.4,2.6-1l0.5,0.7
		c-0.8,0.7-1.8,1.2-3.1,1.2c-2.8,0-4.6-2.1-4.6-5.6c0-3.5,1.8-5.7,4.6-5.7C7.2,790.5,8.1,790.8,9,791.6z"/>
	<path d="M17.2,790.6l-0.2,0.9c-0.3-0.1-0.6-0.1-1-0.1c-1.6,0-2.4,1.1-3,3.4v6.8h-1v-10.9h0.8l0.1,2.5c0.6-1.8,1.6-2.7,3.1-2.7
		C16.6,790.5,17,790.6,17.2,790.6z"/>
	<path d="M27.1,796.6h-7.4c0.1,3.1,1.6,4.4,3.6,4.4c1.2,0,2-0.4,3-1.1l0.5,0.6c-1,0.8-2.1,1.3-3.5,1.3c-2.8,0-4.5-2.1-4.5-5.6
		c0-3.5,1.7-5.8,4.3-5.8c2.8,0,4.2,2.1,4.2,5.2C27.2,796.1,27.2,796.4,27.1,796.6z M26.2,795.4c0-2.5-1-4.1-3.2-4.1
		c-1.8,0-3.2,1.3-3.3,4.5h6.5V795.4z"/>
	<path d="M37.4,799.3c0,1.3,0.3,1.7,0.9,1.9l-0.2,0.7c-0.9-0.2-1.4-0.7-1.5-1.9c-0.8,1.3-1.9,1.9-3.5,1.9c-2.1,0-3.4-1.3-3.4-3.3
		c0-2.3,1.7-3.5,4.4-3.5h2.2V794c0-1.8-0.7-2.6-2.6-2.6c-0.9,0-1.9,0.2-3,0.7l-0.3-0.8c1.2-0.5,2.2-0.7,3.3-0.7
		c2.4,0,3.5,1.2,3.5,3.4V799.3z M36.4,799v-3.1h-2.1c-2.2,0-3.6,0.9-3.6,2.7c0,1.6,0.9,2.5,2.5,2.5C34.7,801.1,35.7,800.3,36.4,799z
		"/>
	<path d="M46.8,801.2c-0.6,0.4-1.4,0.7-2.3,0.7c-1.6,0-2.6-0.9-2.6-2.8v-7.5h-1.8v-0.8H42v-2.7l1-0.1v2.8h2.9l-0.1,0.8h-2.8v7.5
		c0,1.3,0.5,2,1.7,2c0.6,0,1.2-0.2,1.8-0.5L46.8,801.2z"/>
	<path d="M50.2,786.8c0,0.4-0.3,0.7-0.8,0.7c-0.5,0-0.8-0.3-0.8-0.7s0.3-0.7,0.8-0.7C49.9,786.1,50.2,786.4,50.2,786.8z M49,801.7
		v-10.9h1v10.9H49z"/>
	<path d="M56.6,801.7l-4-10.9h1.1l3.5,10.1l3.4-10.1h1l-3.8,10.9H56.6z"/>
	<path d="M71.6,796.6h-7.4c0.1,3.1,1.6,4.4,3.6,4.4c1.2,0,2-0.4,3-1.1l0.5,0.6c-1,0.8-2.1,1.3-3.5,1.3c-2.8,0-4.5-2.1-4.5-5.6
		c0-3.5,1.7-5.8,4.3-5.8c2.8,0,4.2,2.1,4.2,5.2C71.6,796.1,71.6,796.4,71.6,796.6z M70.7,795.4c0-2.5-1-4.1-3.2-4.1
		c-1.8,0-3.2,1.3-3.3,4.5h6.5V795.4z"/>
	<path d="M89.1,790.8c-0.7,0.2-1.6,0.3-3,0.3c1.1,0.5,1.8,1.5,1.8,3.1c0,2.1-1.5,3.6-3.9,3.6c-0.5,0-1-0.1-1.4-0.2
		c-0.6,0.3-0.9,0.8-0.9,1.3c0,0.7,0.5,1.2,1.8,1.2h1.8c2.1,0,3.4,1.1,3.4,2.7c0,1.9-1.5,3.1-4.6,3.1c-3.2,0-4.5-0.9-4.5-3.1h0.9
		c0,1.6,0.9,2.2,3.6,2.2c2.6,0,3.6-0.8,3.6-2.2c0-1.2-1-1.9-2.6-1.9h-1.8c-1.8,0-2.7-0.8-2.7-1.9c0-0.7,0.5-1.4,1.2-1.8
		c-1.2-0.7-1.8-1.6-1.8-3.1c0-2.2,1.5-3.6,3.9-3.6c3,0,3.7-0.2,4.7-0.6L89.1,790.8z M81.1,794.2c0,1.9,1.2,2.9,2.9,2.9
		c1.9,0,2.9-1,2.9-2.8c0-1.8-0.9-2.9-2.9-2.9C82.1,791.3,81.1,792.5,81.1,794.2z"/>
	<path d="M96.8,790.6l-0.2,0.9c-0.3-0.1-0.6-0.1-1-0.1c-1.6,0-2.4,1.1-3,3.4v6.8h-1v-10.9h0.8l0.1,2.5c0.6-1.8,1.6-2.7,3.1-2.7
		C96.1,790.5,96.5,790.6,96.8,790.6z"/>
	<path d="M107.3,796.2c0,3.6-1.7,5.7-4.5,5.7c-2.8,0-4.5-2.2-4.5-5.7c0-3.6,1.8-5.7,4.5-5.7C105.6,790.5,107.3,792.5,107.3,796.2z
		 M99.3,796.2c0,3.1,1.3,4.8,3.5,4.8c2.2,0,3.5-1.7,3.5-4.9c0-3.2-1.3-4.8-3.5-4.8C100.6,791.4,99.3,793,99.3,796.2z"/>
	<path d="M117.7,801.7l-0.1-2c-0.7,1.3-1.9,2.3-3.6,2.3c-2,0-3.1-1.2-3.1-3.4v-7.8h1v7.7c0,1.8,0.8,2.6,2.3,2.6c1.5,0,2.6-1,3.4-2.3
		v-8h1v10.9H117.7z"/>
	<path d="M131.4,796.1c0,3.5-1.4,5.8-4.1,5.8c-1.4,0-2.5-0.7-3.2-1.6v5.5l-1,0.2v-15.2h0.8l0.1,1.7c0.8-1.1,2-1.9,3.4-1.9
		C130.1,790.5,131.4,792.6,131.4,796.1z M130.4,796.1c0-3.2-1-4.8-3.1-4.8c-1.5,0-2.4,0.8-3.2,1.9v6c0.7,1.1,1.7,1.8,3.1,1.8
		C129.3,801,130.4,799.4,130.4,796.1z"/>
</g>
</svg>
