<?xml version="1.0" encoding="utf-8"?>
<!-- Generator: Adobe Illustrator 17.1.0, SVG Export Plug-In . SVG Version: 6.00 Build 0)  -->
<!DOCTYPE svg PUBLIC "-//W3C//DTD SVG 1.1//EN" "http://www.w3.org/Graphics/SVG/1.1/DTD/svg11.dtd">
<svg version="1.1" id="Layer_1" xmlns="http://www.w3.org/2000/svg" xmlns:xlink="http://www.w3.org/1999/xlink" x="0px" y="0px"
	 viewBox="0 0 612 792" enable-background="new 0 0 612 792" xml:space="preserve">
<linearGradient id="SVGID_1_" gradientUnits="userSpaceOnUse" x1="191.8574" y1="336.975" x2="287.2657" y2="429.1619">
	<stop  offset="0.2217" style="stop-color:#A43D23"/>
	<stop  offset="1" style="stop-color:#EE6724"/>
</linearGradient>
<polyline fill="url(#SVGID_1_)" points="205.4,370.1 299.4,464 299.3,419.3 250.1,370.1 "/>
<linearGradient id="SVGID_2_" gradientUnits="userSpaceOnUse" x1="206.1453" y1="478.9125" x2="259.0493" y2="479.1316">
	<stop  offset="0.2217" style="stop-color:#A43D23"/>
	<stop  offset="1" style="stop-color:#EE6724"/>
</linearGradient>
<polyline fill="url(#SVGID_2_)" points="205.4,513 273.7,445.1 296,467.4 250.1,513 "/>
<linearGradient id="SVGID_3_" gradientUnits="userSpaceOnUse" x1="408.7775" y1="366.6261" x2="384.6609" y2="432.7842">
	<stop  offset="0.2217" style="stop-color:#A43D23"/>
	<stop  offset="1" style="stop-color:#EE6724"/>
</linearGradient>
<polygon fill="url(#SVGID_3_)" points="408.2,377 424.3,401.6 390.7,439.5 353.9,439.5 "/>
<polygon fill="#F26522" points="424.3,370.1 424.3,401.6 317.1,401.7 317.1,370.1 "/>
<linearGradient id="SVGID_4_" gradientUnits="userSpaceOnUse" x1="342.9316" y1="516.9485" x2="350.9703" y2="469.4216">
	<stop  offset="0.2217" style="stop-color:#A43D23"/>
	<stop  offset="1" style="stop-color:#EE6724"/>
</linearGradient>
<polygon fill="url(#SVGID_4_)" points="333.1,505.9 317,481.3 350,443.4 387.3,443.4 "/>
<polygon fill="#F26522" points="317,512.9 317,481.3 424.4,481.3 424.4,512.8 "/>
<linearGradient id="SVGID_5_" gradientUnits="userSpaceOnUse" x1="486.9972" y1="291.3082" x2="532.5132" y2="422.8409">
	<stop  offset="0.2217" style="stop-color:#A43D23"/>
	<stop  offset="1" style="stop-color:#EE6724"/>
</linearGradient>
<polygon fill="url(#SVGID_5_)" points="531.4,377 515.5,421.8 547.8,513.1 580.4,513.1 "/>
<polygon fill="#F26522" points="497.2,370.1 528.9,370.1 475.8,513 442,513.1 "/>
<linearGradient id="SVGID_6_" gradientUnits="userSpaceOnUse" x1="64.2995" y1="419.1022" x2="129.0507" y2="512.9952">
	<stop  offset="0.2217" style="stop-color:#A43D23"/>
	<stop  offset="1" style="stop-color:#EE6724"/>
</linearGradient>
<polyline fill="url(#SVGID_6_)" points="78.3,466.1 113.3,513.5 147.8,513.5 78.3,417.9 "/>
<polyline fill="#F06623" points="78.3,417.9 113.3,370.5 147.8,370.5 78.3,466.1 "/>
<rect x="45.1" y="370.5" fill="#EE6724" width="28.1" height="143.1"/>
<polyline fill="#F06623" points="205.4,370.1 160,415.4 182.3,437.7 250.1,370.1 "/>
<polyline fill="#F06623" points="205.4,513 157,463.9 156.5,419.5 250.1,513 "/>
</svg>
